<svg version="1.1" id="Layer_1" xmlns="http://www.w3.org/2000/svg" xmlns:xlink="http://www.w3.org/1999/xlink" x="0px" y="0px" viewBox="0 0 59.2 61.8" style="enable-background:new 0 0 59.2 61.8;" xml:space="preserve">
 <style type="text/css">
  .st0{fill:#2B9ED2;}
	.st1{fill:#237ABE;}
	.st2{fill:#F5B653;}
	.st3{fill:#F59121;}
	.st4{fill:#F59120;}
	.st5{fill:#86C44C;}
	.st6{fill:#36B24A;}
 </style>
 <g>
  <g>
   <path class="st0" d="M25.1,61.7c1.9,0,3.5-1.6,3.5-3.5l0-17.4v-0.1l-7-4c0,0,0,1.5,0,2c0,4.9,0,19.5,0,19.5
			C21.6,60.1,23.2,61.7,25.1,61.7">
   </path>
   <path class="st1" d="M5.1,50.2c1,1.7,3.1,2.2,4.7,1.3l16.9-9.8c1.7-1,1.7-1,1.7-1l-7-4c0,0-0.5,0.3-0.6,0.4
			c-3.6,2.1-14.5,8.5-14.5,8.5C4.7,46.4,4.2,48.5,5.1,50.2">
   </path>
   <path class="st0" d="M54.1,50.3c1-1.7,0.4-3.8-1.3-4.7l-15.1-8.7l-0.1-0.1l-6.9,4c0,0,1.3,0.7,1.8,1c4.2,2.4,16.9,9.7,16.9,9.7
			C51,52.5,53.2,51.9,54.1,50.3">
   </path>
   <path class="st1" d="M34.2,61.8c1.9,0,3.5-1.6,3.5-3.5l-0.1-19.5c0-1.9,0-2,0-2l-6.9,4c0,0,0,0.5,0,0.7c0,4.2,0.1,16.8,0.1,16.8
			C30.8,60.3,32.3,61.8,34.2,61.8">
   </path>
   <path class="st2" d="M58.7,19.4c-1-1.7-3.1-2.2-4.7-1.3l-15.1,8.7l-0.1,0.1v8c0,0,1.3-0.8,1.7-1c4.2-2.5,16.9-9.8,16.9-9.8
			C59.1,23.2,59.6,21,58.7,19.4">
   </path>
   <path class="st3" d="M58.7,42.4c1-1.7,0.4-3.8-1.3-4.7l-16.9-9.8c-1.7-1-1.7-1-1.7-1v8c0,0,0.5,0.3,0.6,0.4
			C43,37.4,54,43.6,54,43.6C55.6,44.6,57.7,44,58.7,42.4">
   </path>
   <path class="st2" d="M0.5,42.4c1,1.7,3.1,2.2,4.7,1.3l15.1-8.7l0.1-0.1l0-8c0,0-1.3,0.8-1.7,1c-4.2,2.5-16.9,9.8-16.9,9.8
			C0.1,38.6-0.5,40.7,0.5,42.4">
   </path>
   <path class="st4" d="M0.5,19.4c-1,1.7-0.4,3.8,1.3,4.7l16.9,9.7c1.7,1,1.7,1,1.7,1l0-8c0,0-0.5-0.3-0.6-0.4
			c-3.6-2.1-14.6-8.4-14.6-8.4C3.5,17.2,1.4,17.7,0.5,19.4">
   </path>
   <path class="st5" d="M34.1,0c-1.9,0-3.5,1.6-3.5,3.5l0,17.4V21l7,4c0,0,0-1.5,0-2c0-4.9,0-19.5,0-19.5C37.6,1.5,36,0,34.1,0">
   </path>
   <path class="st6" d="M54,11.5c-1-1.7-3.1-2.2-4.7-1.3L32.4,20c-1.7,1-1.7,1-1.7,1l7,4c0,0,0.5-0.3,0.6-0.4
			c3.6-2.1,14.5-8.5,14.5-8.5C54.4,15.2,55,13.1,54,11.5">
   </path>
   <path class="st5" d="M5.1,11.5c-0.9,1.7-0.4,3.8,1.3,4.7L21.5,25l0.1,0.1l6.9-4c0,0-1.3-0.7-1.8-1c-4.3-2.4-16.9-9.7-16.9-9.7
			C8.2,9.3,6.1,9.9,5.1,11.5">
   </path>
   <path class="st6" d="M25,0c-1.9,0-3.5,1.6-3.5,3.5L21.6,23c0,1.9,0,2,0,2l6.9-4c0,0,0-0.5,0-0.7c0-4.2-0.1-16.8-0.1-16.8
			C28.5,1.5,26.9,0,25,0">
   </path>
  </g>
 </g>
</svg>